<?xml version="1.0" encoding="iso-8859-1"?>
<!-- Generator: Adobe Illustrator 19.0.0, SVG Export Plug-In . SVG Version: 6.00 Build 0)  -->
<svg version="1.1" id="Capa_1" xmlns="http://www.w3.org/2000/svg" xmlns:xlink="http://www.w3.org/1999/xlink" x="0px" y="0px"
	 viewBox="0 0 512 512" style="enable-background:new 0 0 512 512;" xml:space="preserve">
<g>
	<g>
		<path d="M474.873,230.324c-3.174-3.296-7.727-4.658-12.187-3.645c-13.43,3.074-48.323,8.45-82.197-7.984
			c-4.72-2.295-10.306-1.533-14.232,1.938c-3.926,3.474-5.364,8.925-3.661,13.895c3.412,9.924,7.571,23.428,10.345,37.222
			c-8.874-4.099-19.535-8.974-32.373-14.793c-34.794-15.77-69.397-31.104-71.313-31.953c-1.371-0.646-2.735-1.322-4.093-2.01
			c-0.429-0.217-0.855-0.438-1.282-0.659c-0.947-0.49-1.886-0.99-2.819-1.497c-5.914-3.212-11.643-6.783-17.11-10.691
			c-2.665-1.885-5.42-3.982-8.188-6.234c-25.73-20.932-44.326-48.823-53.775-80.661c-1.179-3.972-5.356-6.235-9.324-5.057
			c-3.971,1.179-6.235,5.354-5.056,9.324c8.833,29.763,24.998,56.362,47.103,77.74c-12.662,0.976-23.767-1.673-28.847-3.183
			c-2.829-0.845-5.935-0.508-8.519,0.928c-2.589,1.44-4.519,3.907-5.287,6.744c-2.072,7.556-7.217,22.686-10.379,31.825
			c-13.33-6.35-20.69-13.967-24.016-18.158c-2.474-3.113-6.295-4.64-10.22-4.085c-3.918,0.555-7.159,3.078-8.67,6.754
			c-5.593,13.631-17.787,29.574-25.303,38.697c-4.866-8.471-9.2-18.638-12.166-26.226c-1.597-4.079-5.45-6.83-9.816-7.009
			c-4.405-0.171-8.486,2.266-10.424,6.228c-1.077,2.201-2.302,4.274-3.574,6.187l-8.864-135.526
			c-0.083-1.304-0.125-2.57-0.125-3.764c0-15.908,6.52-30.708,17.84-41.305c3.321,11.335,7.906,19.29,8.28,19.928
			C75.974,85.604,78.446,87,81.088,87c0.253,0,0.508-0.013,0.764-0.039c2.921-0.298,5.399-2.273,6.341-5.055
			c9.223-27.224,27.441-31.131,32.471-31.69c20.881,6.008,36.601,23.597,40.198,45.139l0.318,1.908
			c0.612,3.668,3.789,6.267,7.389,6.267c0.41,0,0.826-0.033,1.244-0.104c4.085-0.682,6.845-4.546,6.164-8.632l-0.319-1.909
			c-4.366-26.147-22.862-47.695-47.701-56.104C120.061,14.955,104.971,0.006,90.409,0c-0.003,0-0.004,0-0.007,0
			c-6.523,0-18.434,3.097-24.967,23.81c-2.418,7.663-2.885,15.463-2.283,22.788C44.499,60.062,33.5,81.432,33.5,104.67
			c0,1.51,0.052,3.097,0.156,4.729L47.38,319.307c0.015,11.423,1.034,22.877,3.03,34.05c0.649,3.632,3.81,6.182,7.375,6.182
			c0.438,0,0.882-0.038,1.328-0.118c4.077-0.729,6.792-4.624,6.064-8.702c-1.855-10.385-2.796-21.036-2.796-31.658
			c0-0.163-0.005-0.326-0.016-0.488l-3.461-52.941c2.863-2.81,7.395-7.694,11.515-14.031c3.59,8.478,8.219,18.222,13.293,25.962
			c1.923,2.944,5.035,4.764,8.54,4.99c0.246,0.016,0.491,0.023,0.734,0.023c3.23,0,6.249-1.385,8.368-3.861
			c6.221-7.253,20.478-24.693,28.706-41.247c6.06,6.285,15.489,13.702,29.638,19.651c2.8,1.186,6.001,1.156,8.782-0.081
			c2.787-1.238,4.958-3.6,5.953-6.466c2.449-7.019,7.962-22.986,10.996-33.072c9.309,2.315,26.258,5.037,43.952,0.497
			c0.339,0.263,0.677,0.527,1.014,0.785c-5.709,2.476-10.777,6.583-14.485,12.16c-11.775,17.707-18.812,41.154-20.915,69.692
			c-2.293,31.152,7.675,58.864,28.068,78.031c18.85,17.718,45.266,27.02,75.839,27.02c7.161,0,14.549-0.511,22.122-1.542
			c4.104-0.56,6.978-4.34,6.418-8.444c-0.559-4.104-4.335-6.979-8.444-6.419c-35.335,4.815-65.758-2.836-85.663-21.544
			c-17.033-16.009-25.336-39.448-23.382-66c1.911-25.932,8.117-46.956,18.446-62.488c5.344-8.036,15.854-10.526,24.445-5.789
			c0.337,0.186,0.686,0.36,1.025,0.544c1.057,0.574,2.119,1.138,3.187,1.691c0.456,0.236,0.91,0.471,1.368,0.703
			c1.497,0.758,3,1.503,4.516,2.218c0.054,0.025,0.108,0.051,0.163,0.074c34.954,15.477,84.73,37.839,116.018,52.482
			c0.172,0.091,0.35,0.171,0.53,0.248c11.502,5.387,20.441,9.703,25.136,12.212c1.385,0.74,2.41,1.327,3.012,1.733
			c0.103,0.107,0.191,0.225,0.292,0.333c1.924,2.079,3.416,4.453,4.42,7.022c0.996,2.549,1.526,5.282,1.526,8.097
			c0,21.326-12.322,39.758-32.981,49.314c-11.393,5.31-22.735,9.661-33.713,12.934c-3.969,1.184-6.228,5.361-5.044,9.33
			c1.183,3.97,5.36,6.227,9.331,5.045c11.676-3.481,23.709-8.096,35.744-13.704c7.363-3.406,13.888-7.725,19.463-12.784
			c-2.248,7.594-5.013,15.051-8.303,22.346C370.112,456.304,307.191,497,238.208,497c-0.03,0-0.065,0-0.094,0
			c-36.61-0.019-71.701-11.353-101.479-32.777c-29.071-20.918-50.972-49.782-63.334-83.473c-1.428-3.889-5.738-5.884-9.625-4.457
			c-3.889,1.427-5.884,5.736-4.458,9.625c13.399,36.517,37.14,67.805,68.655,90.48c32.343,23.271,70.461,35.582,110.231,35.602
			c0.037,0,0.065,0,0.102,0c74.864-0.003,143.158-44.166,173.999-112.537c10.644-23.605,16.276-48.75,16.783-74.794
			c14.936-15.319,39.12-44.635,49.066-82.063C479.231,238.205,478.042,233.613,474.873,230.324z M79.739,28.321
			C81.309,23.346,84.78,15,90.401,15h0.002c7.337,0.003,15.935,10.241,21.327,21.831c-8.62,2.528-20.942,8.787-30.392,24.277
			c-0.109-0.34-0.217-0.684-0.323-1.031C78.476,51.792,76.195,39.559,79.739,28.321z M425.926,305.891
			c-1.764-4.03-4.251-7.75-7.398-10.999c-0.131-0.135-0.255-0.276-0.389-0.409c-0.528-0.529-1.143-1.143-3.861-2.701
			c-3.458-1.982-10.331-5.495-24.779-12.312c-2.341-16.143-7.05-32.716-11.182-45.26c33.183,14.545,65.713,11.625,84.323,7.825
			C454.723,268.945,438.785,291.208,425.926,305.891z"/>
	</g>
</g>
<g>
	<g>
		<path d="M110.79,133.848l-18.937-9.69c-4.346-2.221-9.714-1.287-13.054,2.271l-12.028,12.819c-3.064,3.265-3.85,8.009-2,12.086
			l15.496,34.151c1.79,3.942,5.713,6.465,10.033,6.465c0.061,0,0.122-0.001,0.183-0.002c4.391-0.072,8.315-2.739,9.997-6.794
			l15.466-37.281C118.133,142.606,115.867,136.445,110.79,133.848z M90.138,170.938l-10.604-23.37l8.155-8.691l12.991,6.648
			L90.138,170.938z"/>
	</g>
</g>
<g>
	<g>
		<path d="M391.147,338.316c-1.299-3.935-5.542-6.072-9.473-4.771c-33.209,10.964-66.383,11.53-98.603,1.689
			c-24.186-7.388-38.742-18.208-38.887-18.316c-3.299-2.492-7.995-1.842-10.494,1.454c-2.502,3.301-1.855,8.006,1.445,10.508
			c0.657,0.498,16.385,12.285,42.899,20.498c13.292,4.117,30.812,7.729,51.363,7.729c17.121,0,36.345-2.507,56.979-9.318
			C390.309,346.49,392.445,342.249,391.147,338.316z"/>
	</g>
</g>
<g>
	<g>
		<path d="M383.814,300.459c-68.471,1.949-123.961-39.892-124.581-40.365c-3.282-2.521-7.989-1.904-10.513,1.379
			c-2.524,3.284-1.909,7.992,1.375,10.517c2.365,1.817,57.48,43.536,128.976,43.536c1.711,0,3.438-0.024,5.167-0.073
			c4.14-0.117,7.402-3.569,7.285-7.709C391.406,303.603,387.94,300.338,383.814,300.459z"/>
	</g>
</g>
<g>
</g>
<g>
</g>
<g>
</g>
<g>
</g>
<g>
</g>
<g>
</g>
<g>
</g>
<g>
</g>
<g>
</g>
<g>
</g>
<g>
</g>
<g>
</g>
<g>
</g>
<g>
</g>
<g>
</g>
</svg>
